<?xml version="1.0" encoding="UTF-8" standalone="no"?>
<svg
   xmlns="http://www.w3.org/2000/svg"
   id="svg8"
   version="1.1"
   viewBox="0 0 84.666665 84.666669"
   height="320"
   width="320">
  <metadata
     id="metadata9">
  </metadata>
  <defs
     id="defs2" />
  <path
     style="fill:#43b174;fill-opacity:1;stroke:none;stroke-width:0.49912229;stroke-miterlimit:4;stroke-dasharray:none;stroke-opacity:1;paint-order:markers fill stroke"
     d="M 159.99219 0.24414062 A 158.81164 158.81164 0 0 0 1.1816406 159.05664 A 158.81164 158.81164 0 0 0 159.99219 317.86719 A 158.81164 158.81164 0 0 0 318.80469 159.05664 A 158.81164 158.81164 0 0 0 159.99219 0.24414062 z M 142.40234 56.53125 L 152.31055 56.53125 L 162.2168 56.53125 L 162.2168 66.4375 L 162.2168 76.345703 L 163.81836 76.345703 C 165.36954 76.345703 165.42244 76.318524 165.43359 75.542969 C 165.44077 75.102238 165.43468 70.644786 165.42188 65.636719 L 165.39648 56.53125 L 175.02344 56.53125 L 184.65039 56.53125 L 184.65039 66.4375 L 184.65039 76.345703 L 202.86133 76.345703 L 221.07227 76.345703 L 221.07227 99.363281 L 221.07227 122.38281 L 207.52344 122.38281 L 193.97461 122.38281 L 193.97461 113.94141 L 193.97461 105.5 L 166.00195 105.48633 L 138.03125 105.47461 L 137.97852 110.06641 C 137.94866 112.59274 137.91575 120.78986 137.9043 128.28125 L 137.88477 141.90234 L 172.04688 141.90234 L 206.21094 141.9043 L 206.21094 156.03516 L 206.21094 170.16797 L 172.12109 170.16797 C 149.58974 170.16797 138.02886 170.26646 138.02734 170.45898 C 138.02618 170.61946 138.02539 178.78008 138.02539 188.5957 L 138.02344 206.44336 L 165.81445 206.51758 L 193.60352 206.5918 L 193.78711 205.06055 C 193.8884 204.2184 193.97344 200.67692 193.97461 197.19141 L 193.97656 190.85547 L 207.52539 190.85547 L 221.07422 190.85547 L 221.07422 212.85352 L 221.07422 234.85156 L 202.86328 234.85156 L 184.65234 234.85156 L 184.65234 244.9043 L 184.65234 254.95703 L 175.02539 254.95703 L 165.40039 254.95703 L 165.48438 244.75781 L 165.56641 234.56055 L 164.31055 234.56055 C 161.76804 234.5609 161.92578 233.8662 161.92578 245.06055 L 161.92578 254.95703 L 152.94141 254.95703 C 148.0002 254.95703 143.87051 254.86849 143.76367 254.76172 L 143.76172 254.76367 C 143.65495 254.6569 143.56836 250.06661 143.56836 244.56445 L 143.56836 234.56055 L 117.92773 234.56055 L 92.287109 234.56055 L 92.287109 220.7207 L 92.287109 206.88086 L 97.048828 206.88086 C 99.667871 206.88086 103.40528 206.79399 105.35352 206.68945 L 108.89453 206.5 L 108.89453 155.95117 L 108.89453 105.40039 L 100.44531 105.54492 L 91.996094 105.6875 L 91.996094 91.015625 L 91.996094 76.345703 L 117.19922 76.345703 L 142.40234 76.345703 L 142.40234 66.4375 L 142.40234 56.53125 z "
     transform="scale(0.26458333)"
     id="path828" />
</svg>
