<svg width="664" height="852" viewBox="0 0 664 852" fill="none" xmlns="http://www.w3.org/2000/svg">
<path fill-rule="evenodd" clip-rule="evenodd" d="M28.4454 521.726H634.588L663.053 570.998H0L28.4454 521.726Z" fill="#43b174"/>
<path d="M186.86 345.664L113.502 472.704H56.751L158.475 296.512L186.86 345.664Z" fill="#43b174"/>
<path d="M119.601 423.441H141.947L119.601 462.145V423.441ZM198.708 423.441H331.116V472.703H170.262L198.708 423.441Z" fill="#43b174"/>
<path d="M217.235 201.678L373.719 472.704H316.959L188.859 250.83L217.235 201.678Z" fill="#43b174"/>
<path d="M361.931 49.1621L238.471 263.008L195.948 238.562L333.676 0L361.931 49.1621Z" fill="#43b174"/>
<path d="M297.972 135.408L492.72 472.704H435.96L255.439 160.044L297.972 135.408Z" fill="#43b174"/>
<path d="M350.913 29.9951L463.685 226.184L435.28 275.386L308.38 54.6312L350.913 29.9951Z" fill="#43b174"/>
<path d="M467.635 233.052L421.782 312.469L397.566 354.423L355.033 329.787L439.319 183.8L467.635 233.052Z" fill="#43b174"/>
<path fill-rule="evenodd" clip-rule="evenodd" d="M496.1 282.064L606.122 472.464H549.361L467.724 331.197L496.1 282.064Z" fill="#43b174"/>
<path d="M0.129883 625.289H10.8681V706.166H0.129883V625.289ZM55.9308 646.896C62.6997 646.896 68.1389 649.035 72.2182 653.304C76.2976 657.584 78.3372 663.383 78.3372 670.692V706.166H68.2888V671.272C68.2888 666.572 67.0191 662.933 64.4795 660.353C61.9299 657.774 58.4304 656.484 53.9612 656.484C48.962 656.484 44.9126 658.044 41.8331 661.163C38.7536 664.283 37.2139 669.082 37.2139 675.551V706.166H27.1554V648.395H37.2139V656.714C41.2932 650.165 47.5322 646.896 55.9308 646.896ZM123.74 658.104H108.382V689.409C108.382 692.258 108.932 694.278 110.052 695.478C111.172 696.668 112.882 697.287 115.191 697.327C117.501 697.367 120.35 697.307 123.74 697.147V706.166C114.961 707.316 108.532 706.606 104.453 704.026C100.364 701.447 98.324 696.577 98.324 689.409V658.104H86.8858V648.395H98.324V635.227L108.382 632.228V648.395H123.74V658.104ZM139.797 681.9C140.807 687.059 143.167 691.068 146.906 693.918C150.646 696.767 155.245 698.187 160.714 698.187C168.343 698.187 173.882 695.378 177.351 689.759L185.9 694.608C180.281 703.316 171.802 707.666 160.484 707.666C151.316 707.666 143.867 704.796 138.128 699.057C132.388 693.318 129.519 686.059 129.519 677.281C129.519 668.572 132.329 661.333 137.958 655.564C143.577 649.785 150.855 646.896 159.784 646.896C168.263 646.896 175.172 649.875 180.531 655.854C185.88 661.813 188.559 669.002 188.559 677.401C188.559 678.86 188.439 680.36 188.21 681.9H139.797ZM159.784 656.374C154.395 656.374 149.926 657.894 146.386 660.933C142.847 663.973 140.647 668.042 139.797 673.121H178.391C177.541 667.652 175.382 663.493 171.922 660.643C168.453 657.794 164.413 656.374 159.784 656.374ZM210.156 658.104C213.475 650.935 219.484 647.356 228.183 647.356V657.874C223.254 657.644 219.015 658.954 215.475 661.803C211.936 664.653 210.156 669.232 210.156 675.551V706.166H200.108V648.395H210.156V658.104ZM266.767 646.896C273.546 646.896 278.975 649.035 283.064 653.304C287.144 657.584 289.183 663.383 289.183 670.692V706.166H279.135V671.272C279.135 666.572 277.865 662.933 275.315 660.353C272.776 657.774 269.276 656.484 264.807 656.484C259.798 656.484 255.759 658.044 252.679 661.163C249.6 664.283 248.06 669.082 248.06 675.551V706.166H238.001V648.395H248.06V656.714C252.139 650.165 258.378 646.896 266.767 646.896ZM350.993 648.395H361.042V706.166H350.993V696.228C345.984 703.856 338.705 707.666 329.157 707.666C321.068 707.666 314.179 704.716 308.48 698.827C302.781 692.938 299.931 685.749 299.931 677.281C299.931 668.812 302.781 661.623 308.48 655.734C314.179 649.845 321.068 646.896 329.157 646.896C338.705 646.896 345.984 650.705 350.993 658.334V648.395ZM330.427 697.957C336.286 697.957 341.175 695.978 345.104 692.008C349.023 688.039 350.993 683.13 350.993 677.281C350.993 671.422 349.023 666.512 345.104 662.553C341.175 658.584 336.286 656.604 330.427 656.604C324.648 656.604 319.798 658.584 315.869 662.553C311.94 666.512 309.98 671.422 309.98 677.281C309.98 683.13 311.94 688.039 315.869 692.008C319.798 695.978 324.648 697.957 330.427 697.957ZM407.714 658.104H392.357V689.409C392.357 692.258 392.906 694.278 394.026 695.478C395.146 696.668 396.856 697.287 399.165 697.327C401.475 697.367 404.325 697.307 407.714 697.147V706.166C398.935 707.316 392.507 706.606 388.427 704.026C384.338 701.447 382.298 696.577 382.298 689.409V658.104H370.86V648.395H382.298V635.227L392.357 632.228V648.395H407.714V658.104ZM424.701 637.887C422.772 637.887 421.162 637.227 419.852 635.917C418.542 634.607 417.882 633.028 417.882 631.188C417.882 629.338 418.542 627.739 419.852 626.389C421.162 625.039 422.772 624.369 424.701 624.369C426.551 624.369 428.131 625.039 429.441 626.389C430.75 627.739 431.4 629.338 431.4 631.188C431.4 633.028 430.75 634.607 429.441 635.917C428.131 637.227 426.551 637.887 424.701 637.887ZM419.622 706.166V648.395H429.671V706.166H419.622ZM493.79 698.887C487.861 704.736 480.652 707.666 472.184 707.666C463.715 707.666 456.526 704.736 450.637 698.887C444.748 693.028 441.799 685.829 441.799 677.281C441.799 668.732 444.748 661.533 450.637 655.674C456.526 649.825 463.715 646.896 472.184 646.896C480.652 646.896 487.861 649.825 493.79 655.674C499.719 661.533 502.689 668.732 502.689 677.281C502.689 685.829 499.719 693.028 493.79 698.887ZM472.184 697.847C477.963 697.847 482.812 695.878 486.741 691.948C490.671 688.029 492.63 683.13 492.63 677.281C492.63 671.422 490.671 666.532 486.741 662.613C482.812 658.684 477.963 656.714 472.184 656.714C466.485 656.714 461.675 658.684 457.746 662.613C453.817 666.532 451.847 671.422 451.847 677.281C451.847 683.13 453.817 688.029 457.746 691.948C461.675 695.878 466.485 697.847 472.184 697.847ZM543.352 646.896C550.131 646.896 555.56 649.035 559.64 653.304C563.719 657.584 565.759 663.383 565.759 670.692V706.166H555.71V671.272C555.71 666.572 554.44 662.933 551.901 660.353C549.361 657.774 545.852 656.484 541.383 656.484C536.383 656.484 532.334 658.044 529.255 661.163C526.175 664.283 524.635 669.082 524.635 675.551V706.166H514.587V648.395H524.635V656.714C528.715 650.165 534.954 646.896 543.352 646.896ZM627.569 648.395H637.627V706.166H627.569V696.228C622.57 703.856 615.291 707.666 605.732 707.666C597.653 707.666 590.755 704.716 585.055 698.827C579.356 692.938 576.507 685.749 576.507 677.281C576.507 668.812 579.356 661.623 585.055 655.734C590.755 649.845 597.653 646.896 605.732 646.896C615.291 646.896 622.57 650.705 627.569 658.334V648.395ZM607.012 697.957C612.861 697.957 617.75 695.978 621.68 692.008C625.609 688.039 627.569 683.13 627.569 677.281C627.569 671.422 625.609 666.512 621.68 662.553C617.75 658.584 612.861 656.604 607.012 656.604C601.233 656.604 596.384 658.584 592.454 662.553C588.525 666.512 586.555 671.422 586.555 677.281C586.555 683.13 588.525 688.039 592.454 692.008C596.384 695.978 601.233 697.957 607.012 697.957ZM652.874 706.166V621.83H662.923V706.166H652.874ZM28.7252 786.373C28.7252 788.613 29.835 790.402 32.0747 791.752C34.3043 793.092 37.0038 794.172 40.1533 794.982C43.3128 795.792 46.4724 796.711 49.6319 797.751C52.7914 798.791 55.4809 800.571 57.7206 803.07C59.9502 805.57 61.07 808.789 61.07 812.719C61.07 817.958 59.0504 822.147 55.001 825.307C50.9617 828.466 45.7825 830.046 39.4635 830.046C33.8444 830.046 29.0251 828.816 25.0258 826.347C21.0164 823.887 18.1669 820.608 16.4772 816.528L25.1359 811.559C26.0657 814.339 27.7954 816.528 30.335 818.148C32.8846 819.768 35.9241 820.578 39.4635 820.578C42.773 820.578 45.5125 819.938 47.6721 818.668C49.8218 817.398 50.9016 815.408 50.9016 812.719C50.9016 810.479 49.7818 808.689 47.5522 807.35C45.3125 806 42.623 804.92 39.4635 804.11C36.304 803.3 33.1446 802.36 29.9951 801.281C26.8356 800.201 24.1359 798.431 21.9063 795.962C19.6666 793.502 18.5568 790.342 18.5568 786.493C18.5568 781.484 20.4966 777.365 24.386 774.125C28.2754 770.896 33.1446 769.276 39.0036 769.276C43.7029 769.276 47.8821 770.336 51.5415 772.455C55.2009 774.575 57.9505 777.514 59.8002 781.294L51.3616 786.033C49.2819 781.104 45.1626 778.634 39.0036 778.634C36.1541 778.634 33.7244 779.304 31.7248 780.654C29.7251 782.004 28.7252 783.913 28.7252 786.373ZM135.358 769.276C141.827 769.276 147.066 771.375 151.065 775.575C155.075 779.774 157.075 785.453 157.075 792.612V828.546H147.026V792.962C147.026 788.493 145.866 785.023 143.557 782.564C141.247 780.094 138.168 778.864 134.318 778.864C129.999 778.864 126.559 780.314 123.97 783.204C121.39 786.083 120.101 790.492 120.101 796.431V828.546H110.052V792.962C110.052 788.493 108.952 785.023 106.763 782.564C104.563 780.094 101.583 778.864 97.8041 778.864C93.5748 778.864 90.0454 780.334 87.2358 783.253C84.4263 786.183 83.0164 790.572 83.0164 796.431V828.546H72.9681V770.776H83.0164V778.514C86.9458 772.355 92.6849 769.276 100.234 769.276C108.012 769.276 113.672 772.545 117.221 779.094C121.22 772.545 127.269 769.276 135.358 769.276ZM218.885 770.776H228.933V828.546H218.885V818.608C213.875 826.237 206.597 830.046 197.048 830.046C188.959 830.046 182.07 827.097 176.371 821.207C170.672 815.318 167.813 808.13 167.813 799.661C167.813 791.192 170.672 784.003 176.371 778.114C182.07 772.225 188.959 769.276 197.048 769.276C206.597 769.276 213.875 773.085 218.885 780.714V770.776ZM198.318 820.338C204.177 820.338 209.066 818.358 212.985 814.388C216.915 810.429 218.885 805.52 218.885 799.661C218.885 793.812 216.915 788.903 212.985 784.933C209.066 780.964 204.177 778.984 198.318 778.984C192.539 778.984 187.69 780.964 183.76 784.933C179.831 788.903 177.871 793.812 177.871 799.661C177.871 805.52 179.831 810.429 183.76 814.388C187.69 818.358 192.539 820.338 198.318 820.338ZM254.239 780.484C257.548 773.325 263.557 769.736 272.256 769.736V780.254C267.327 780.024 263.097 781.334 259.548 784.183C256.009 787.033 254.239 791.612 254.239 797.931V828.546H244.18V770.776H254.239V780.484ZM314.889 780.484H299.522V811.789C299.522 814.638 300.082 816.668 301.201 817.858C302.311 819.048 304.031 819.668 306.34 819.708C308.65 819.748 311.5 819.688 314.889 819.528V828.546C306.11 829.696 299.682 828.986 295.592 826.407C291.513 823.827 289.473 818.958 289.473 811.789V780.484H278.035V770.776H289.473V757.608L299.522 754.608V770.776H314.889V780.484ZM387.907 769.276C395.996 769.276 402.885 772.225 408.584 778.114C414.283 784.003 417.133 791.192 417.133 799.661C417.133 808.13 414.283 815.318 408.584 821.207C402.885 827.097 395.996 830.046 387.907 830.046C378.349 830.046 371.08 826.237 366.071 818.608V851.652H356.022V770.776H366.071V780.714C371.08 773.085 378.349 769.276 387.907 769.276ZM386.637 820.338C392.407 820.338 397.266 818.358 401.185 814.388C405.115 810.429 407.084 805.52 407.084 799.661C407.084 793.812 405.115 788.903 401.185 784.933C397.266 780.964 392.407 778.984 386.637 778.984C380.778 778.984 375.889 780.964 371.96 784.933C368.03 788.903 366.071 793.812 366.071 799.661C366.071 805.52 368.03 810.429 371.96 814.388C375.889 818.358 380.778 820.338 386.637 820.338ZM429.151 828.546V744.21H439.199V828.546H429.151ZM502.399 770.776H512.447V828.546H502.399V818.608C497.39 826.237 490.111 830.046 480.562 830.046C472.474 830.046 465.575 827.097 459.876 821.207C454.177 815.318 451.327 808.13 451.327 799.661C451.327 791.192 454.177 784.003 459.876 778.114C465.575 772.225 472.474 769.276 480.562 769.276C490.111 769.276 497.39 773.085 502.399 780.714V770.776ZM481.832 820.338C487.681 820.338 492.57 818.358 496.5 814.388C500.429 810.429 502.399 805.52 502.399 799.661C502.399 793.812 500.429 788.903 496.5 784.933C492.57 780.964 487.681 778.984 481.832 778.984C476.053 778.984 471.204 780.964 467.275 784.933C463.345 788.903 461.385 793.812 461.385 799.661C461.385 805.52 463.345 810.429 467.275 814.388C471.204 818.358 476.053 820.338 481.832 820.338ZM554.84 830.046C546.142 830.046 538.903 827.137 533.124 821.327C527.345 815.508 524.455 808.289 524.455 799.661C524.455 791.032 527.345 783.814 533.124 777.994C538.903 772.185 546.142 769.276 554.84 769.276C560.539 769.276 565.669 770.646 570.208 773.375C574.757 776.115 578.147 779.794 580.376 784.413L571.948 789.263C570.478 786.183 568.228 783.724 565.189 781.874C562.139 780.024 558.7 779.094 554.84 779.094C549.071 779.094 544.232 781.064 540.343 784.993C536.453 788.913 534.514 793.812 534.514 799.661C534.514 805.44 536.453 810.289 540.343 814.219C544.232 818.148 549.071 820.108 554.84 820.108C558.7 820.108 562.159 819.208 565.239 817.398C568.318 815.588 570.678 813.139 572.288 810.059L580.836 815.028C578.377 819.568 574.827 823.207 570.208 825.947C565.589 828.676 560.469 830.046 554.84 830.046ZM597.014 804.28C598.013 809.439 600.383 813.449 604.122 816.298C607.852 819.148 612.451 820.578 617.92 820.578C625.549 820.578 631.098 817.758 634.558 812.139L643.106 816.988C637.487 825.697 629.018 830.046 617.69 830.046C608.532 830.046 601.073 827.176 595.334 821.437C589.605 815.698 586.735 808.439 586.735 799.661C586.735 790.962 589.545 783.723 595.164 777.944C600.783 772.165 608.062 769.276 617 769.276C625.469 769.276 632.388 772.265 637.737 778.234C643.086 784.203 645.766 791.382 645.766 799.781C645.766 801.241 645.656 802.74 645.416 804.28H597.014ZM617 778.754C611.611 778.754 607.142 780.274 603.602 783.314C600.053 786.353 597.863 790.422 597.014 795.502H635.597C634.758 790.032 632.598 785.873 629.128 783.024C625.669 780.174 621.62 778.754 617 778.754Z" fill="white"/>
</svg>
